<?xml version="1.0" encoding="utf-8"?>
<!-- Generator: Adobe Illustrator 20.1.0, SVG Export Plug-In . SVG Version: 6.00 Build 0)  -->
<svg version="1.1" id="Слой_1" xmlns="http://www.w3.org/2000/svg" xmlns:xlink="http://www.w3.org/1999/xlink" x="0px" y="0px"
	 viewBox="0 0 180 50" style="enable-background:new 0 0 180 50;" xml:space="preserve">
<style type="text/css">
	.frame{fill:none;stroke:#3c3c3c;stroke-width:2;stroke-linecap:round;stroke-linejoin:round;stroke-miterlimit:10;}
	.word-1{fill:#3c3c3c;}
	.word-2{fill:#3c3c3c;}
</style>
<polyline class="frame" points="20,6 5,6 5,20 "/>
<polyline class="frame" points="174,20 174,6 160,6 "/>
<polyline class="frame" points="160,45 174,45 174,30 "/>
<polyline class="frame" points="5,30 5,45 20,45 "/>
<g>
	<path class="word-1" d="M15.2,35.6V15.4h4.8c2.5,0,4.4,0.5,5.6,1.4s1.8,2.3,1.8,4.2c0,1.4-0.4,2.5-1.1,3.5c-0.7,0.9-1.8,1.6-3.3,2
		l5.5,9.2h-1.7l-5.2-8.8h-5v8.8H15.2z M16.7,25.6h3.9c1.7,0,3-0.4,4-1.1c0.9-0.8,1.4-1.9,1.4-3.4c0-1.5-0.5-2.7-1.4-3.4
		c-0.9-0.7-2.4-1.1-4.5-1.1h-3.4V25.6z"/>
	<path class="word-1" d="M32.1,35.6V15.4h11.1v1.3h-9.7v7.7h9.1v1.3h-9.1v8.7h9.7v1.3H32.1z"/>
	<path class="word-1" d="M44.9,35.6L53,15.3h0.9l8,20.3h-1.6l-2.8-7.2h-8.2l-2.8,7.2H44.9z M49.8,27.2H57l-2.8-7.3
		c-0.2-0.6-0.5-1.4-0.8-2.4c-0.2,0.9-0.5,1.7-0.8,2.4L49.8,27.2z"/>
	<path class="word-1" d="M64.8,35.6V15.4h1.4v19h9.7v1.3H64.8z"/>
	<path class="word-2" d="M79,35.6V15.4h4.3v7.9h8v-7.9h4.3v20.3h-4.3v-8.7h-8v8.7H79z"/>
	<path class="word-2" d="M99.8,25.5c0-3.4,0.8-6,2.5-7.7c1.6-1.8,4-2.7,7-2.7c3,0,5.4,0.9,7,2.7c1.6,1.8,2.4,4.4,2.4,7.7
		c0,3.3-0.8,5.9-2.4,7.7c-1.6,1.8-4,2.7-7,2.7c-3,0-5.4-0.9-7-2.7C100.7,31.4,99.8,28.8,99.8,25.5z M104.1,25.5c0,2.3,0.4,4,1.3,5.1
		c0.9,1.1,2.1,1.7,3.9,1.7c3.4,0,5.1-2.3,5.1-6.8c0-4.6-1.7-6.9-5.1-6.9c-1.7,0-3,0.6-3.9,1.7S104.1,23.2,104.1,25.5z"/>
	<path class="word-2" d="M123.3,35.6V15.4h5.8l4.8,15.5h0.1l5.5-15.5h6.1v20.3h-4.3v-9.6c0-0.5,0-1,0-1.6c0-0.6,0-2.2,0-4.7l-5.2,15.9
		h-4.3L127,19.8h-0.1c0.4,3.2,0.7,5.4,0.7,6.5v9.4H123.3z"/>
	<path class="word-2" d="M150.1,35.6V15.4h11.7v3.5h-7.4v4.4h6.9v3.5h-6.9v5.2h7.4v3.6H150.1z"/>
</g>
</svg>
